<svg xmlns="http://www.w3.org/2000/svg" viewBox="0 0 512 512">
  <rect width="512" height="512" rx="112" fill="#2b6cea"/>
  <circle cx="256" cy="150" r="62" fill="#ffe0c2"/>
  <path d="M256 88a62 62 0 0 1 62 62c0 8-1.5 15.6-4.3 22.6C296 160 262 148 232 166a190 190 0 0 1-36-8.4A62 62 0 0 1 256 88z" fill="#d9455f"/>
  <rect x="196" y="222" width="120" height="130" rx="46" fill="#ffb703"/>
  <path d="M120 430 L392 340" stroke="#ffffff" stroke-width="26" stroke-linecap="round"/>
  <path d="M120 470 L392 380" stroke="#ffffff" stroke-width="26" stroke-linecap="round"/>
  <path d="M370 328 l40 -13" stroke="#dce8ff" stroke-width="26" stroke-linecap="round"/>
  <path d="M370 368 l40 -13" stroke="#dce8ff" stroke-width="26" stroke-linecap="round"/>
</svg>
